<?xml version="1.0" encoding="UTF-8"?>
<svg id="Layer_2" data-name="Layer 2" xmlns="http://www.w3.org/2000/svg" xmlns:xlink="http://www.w3.org/1999/xlink" viewBox="0 0 105.76 106.77">
  <defs>
    <style>
      .cls-1 {
        fill: url(#linear-gradient);
      }

      .cls-1, .cls-2, .cls-3, .cls-4, .cls-5, .cls-6, .cls-7, .cls-8, .cls-9, .cls-10, .cls-11, .cls-12, .cls-13, .cls-14, .cls-15, .cls-16, .cls-17 {
        stroke-width: 0px;
      }

      .cls-2 {
        fill: url(#linear-gradient-11);
      }

      .cls-3 {
        fill: url(#linear-gradient-12);
      }

      .cls-4 {
        fill: url(#linear-gradient-13);
      }

      .cls-5 {
        fill: url(#linear-gradient-10);
      }

      .cls-6 {
        fill: url(#linear-gradient-15);
      }

      .cls-7 {
        fill: url(#linear-gradient-14);
      }

      .cls-8 {
        fill: #002639;
      }

      .cls-9 {
        fill: url(#Lobster_Logic_Gradient);
      }

      .cls-10 {
        fill: url(#linear-gradient-4);
      }

      .cls-11 {
        fill: url(#linear-gradient-2);
      }

      .cls-12 {
        fill: url(#linear-gradient-3);
      }

      .cls-13 {
        fill: url(#linear-gradient-8);
      }

      .cls-14 {
        fill: url(#linear-gradient-9);
      }

      .cls-15 {
        fill: url(#linear-gradient-7);
      }

      .cls-16 {
        fill: url(#linear-gradient-5);
      }

      .cls-17 {
        fill: url(#linear-gradient-6);
      }
    </style>
    <linearGradient id="Lobster_Logic_Gradient" data-name="Lobster Logic Gradient" x1="52.88" y1="0" x2="52.88" y2="105.56" gradientUnits="userSpaceOnUse">
      <stop offset="0" stop-color="#17a991"/>
      <stop offset="1" stop-color="#00263a"/>
    </linearGradient>
    <linearGradient id="linear-gradient" x1="7.91" y1="75.39" x2="28.67" y2="75.39" gradientUnits="userSpaceOnUse">
      <stop offset="0" stop-color="#17a991"/>
      <stop offset=".02" stop-color="#149c88"/>
      <stop offset=".08" stop-color="#0f7c73"/>
      <stop offset=".15" stop-color="#0a6161"/>
      <stop offset=".22" stop-color="#064b52"/>
      <stop offset=".31" stop-color="#033a47"/>
      <stop offset=".42" stop-color="#012e3f"/>
      <stop offset=".57" stop-color="#00273b"/>
      <stop offset="1" stop-color="#00263a"/>
    </linearGradient>
    <linearGradient id="linear-gradient-2" x1="9.02" y1="46.3" x2="41.99" y2="57.23" gradientUnits="userSpaceOnUse">
      <stop offset="0" stop-color="#17a991"/>
      <stop offset=".25" stop-color="#16a68f"/>
      <stop offset=".42" stop-color="#149d89"/>
      <stop offset=".57" stop-color="#128e7f"/>
      <stop offset=".7" stop-color="#0e7870"/>
      <stop offset=".82" stop-color="#095c5e"/>
      <stop offset=".94" stop-color="#033b48"/>
      <stop offset="1" stop-color="#00263a"/>
    </linearGradient>
    <linearGradient id="linear-gradient-3" x1="9.68" y1="59.32" x2="42.66" y2="59.32" xlink:href="#linear-gradient"/>
    <linearGradient id="linear-gradient-4" x1="28.39" y1="80.58" x2="34.66" y2="80.58" xlink:href="#linear-gradient"/>
    <linearGradient id="linear-gradient-5" x1="22.31" y1="50.72" x2="36.9" y2="50.72" gradientUnits="userSpaceOnUse">
      <stop offset="0" stop-color="#17a991"/>
      <stop offset=".01" stop-color="#15a28c"/>
      <stop offset=".08" stop-color="#0f8176"/>
      <stop offset=".16" stop-color="#0a6463"/>
      <stop offset=".25" stop-color="#064d54"/>
      <stop offset=".35" stop-color="#033b48"/>
      <stop offset=".46" stop-color="#012f40"/>
      <stop offset=".62" stop-color="#00283b"/>
      <stop offset="1" stop-color="#00263a"/>
    </linearGradient>
    <linearGradient id="linear-gradient-6" x1="35.13" y1="77.16" x2="39.1" y2="77.16" xlink:href="#linear-gradient"/>
    <linearGradient id="linear-gradient-7" x1="13.16" y1="39.16" x2="19.38" y2="39.16" xlink:href="#linear-gradient"/>
    <linearGradient id="linear-gradient-8" x1="34.44" y1="65.9" x2="45.29" y2="65.9" xlink:href="#linear-gradient"/>
    <linearGradient id="linear-gradient-9" x1="88.74" y1="48.66" x2="55.81" y2="60.59" gradientUnits="userSpaceOnUse">
      <stop offset="0" stop-color="#17a991"/>
      <stop offset=".08" stop-color="#118a7c"/>
      <stop offset=".17" stop-color="#0c6b68"/>
      <stop offset=".28" stop-color="#075257"/>
      <stop offset=".4" stop-color="#043e4a"/>
      <stop offset=".54" stop-color="#013040"/>
      <stop offset=".7" stop-color="#00283b"/>
      <stop offset="1" stop-color="#00263a"/>
    </linearGradient>
    <linearGradient id="linear-gradient-10" x1="99.8" y1="75.39" x2="78.92" y2="75.39" gradientUnits="userSpaceOnUse">
      <stop offset="0" stop-color="#17a991"/>
      <stop offset=".19" stop-color="#139583"/>
      <stop offset=".59" stop-color="#0a6161"/>
      <stop offset="1" stop-color="#00263a"/>
    </linearGradient>
    <linearGradient id="linear-gradient-11" x1="90.02" y1="80.53" x2="56.05" y2="80.53" gradientUnits="userSpaceOnUse">
      <stop offset="0" stop-color="#17a991"/>
      <stop offset=".33" stop-color="#0d726c"/>
      <stop offset=".63" stop-color="#064851"/>
      <stop offset=".86" stop-color="#012f40"/>
      <stop offset="1" stop-color="#00263a"/>
    </linearGradient>
    <linearGradient id="linear-gradient-12" x1="81.2" y1="50.7" x2="66.85" y2="50.7" xlink:href="#linear-gradient"/>
    <linearGradient id="linear-gradient-13" x1="88.15" y1="77.15" x2="63.83" y2="77.15" gradientUnits="userSpaceOnUse">
      <stop offset="0" stop-color="#17a991"/>
      <stop offset="1" stop-color="#00263a"/>
    </linearGradient>
    <linearGradient id="linear-gradient-14" x1="74.18" y1="65.97" x2="63.76" y2="65.97" xlink:href="#linear-gradient"/>
    <linearGradient id="linear-gradient-15" x1="46.57" y1="18.34" x2="53.9" y2="30.29" xlink:href="#linear-gradient"/>
  </defs>
  <g id="Logo-Solo">
    <g id="LLC">
      <g>
        <path id="Circle" class="cls-9" d="M53.07,106.77c-13.53-.13-25.32-4.75-35.39-13.76-8.58-7.67-14.18-17.1-16.52-28.41C-1.23,53.1.11,42.03,4.94,31.34c2.67-5.9,6.14-11.25,10.74-15.82,6.65-6.59,14.52-11.09,23.52-13.63C44.11.51,49.12-.18,54.19.04c15.35.69,28.35,6.62,38.45,18.23,7.17,8.23,11.49,17.98,12.71,28.85,2.02,17.9-3.48,33.24-16.68,45.58-8.31,7.77-18.22,12.33-29.54,13.77-2.01.25-4.03.3-6.06.3ZM52.62,3.75c-1.82-.02-3.63.06-5.43.26-.21.02-.42.03-.62.06-10.27,1.49-19.25,5.8-26.87,12.78-7.69,7.04-12.34,15.92-14.69,26-1.22,5.22-1.51,10.52-.88,15.88.58,5.02,1.67,9.89,3.69,14.52,3.18,7.25,7.87,13.39,14.03,18.34,11.48,9.21,24.52,13.42,39.14,10.74,17.5-3.21,29.95-13.31,37.2-29.53,3.86-8.64,4.7-17.83,3.14-27.14-1.98-11.76-7.2-21.88-16.24-29.77-9.26-8.08-20.14-12.09-32.45-12.13Z"/>
        <g id="Claw-Arm-Left">
          <g id="Claw-Left">
            <path class="cls-8" d="M31.75,22.06c0,2.23,0,4.46,0,6.69,0,.95-.37,1.66-1.17,2.19-1.25.83-2.47,1.69-3.69,2.56-.34.25-.72.21-1.09.29-.83.17-1.43.64-1.5,1.51-.07.81.35,1.41,1.15,1.66.46.14.76.46,1.04.83,1.21,1.62,2.81,2.44,4.86,2.36.94-.04,1.88-.05,2.82-.03,1.01.02,1.43.75.92,1.63-.66,1.13-1.76,1.53-3,1.62-3.31.26-5.78-1.38-7.83-3.68-2.32-2.61-3.57-5.78-4.28-9.17-.18-.89.03-1.52.96-1.9.9-.36,1.74-.87,2.61-1.31.85-.44,1.63-.98,2.68-.26.62.42,1.54-.17,1.81-.95.28-.8-.06-1.69-.8-2.05-.77-.37-1.73-.11-2.04.68-.87,2.25-3.2,2.35-4.89,3.37-.48.29-.52-.31-.5-.63.39-4.58,1.94-8.55,6.03-11.12,1.42-.89,2.99-1.48,4.63-1.86,1.14-.26,1.29-.15,1.3,1,0,2.19,0,4.39,0,6.58-.01,0-.02,0-.03,0ZM29.12,19.43c-.02-.81-.7-1.44-1.5-1.4-.8.04-1.3.61-1.29,1.46.02.87.61,1.42,1.47,1.39.76-.03,1.34-.67,1.32-1.45Z"/>
            <path class="cls-8" d="M32.56,39.34c-1.08.06-1.91,0-2.74-.16-1.97-.36-2.53-1.5-2.69-3.42-.14-1.73.85-2.23,1.91-2.92.88-.57,1.75-1.14,2.62-1.72.09-.06.21-.1.25-.18.74-1.46,2.33-2.36,2.67-4.11.4-2.05.92-4.07,1.4-6.1.06-.25-.02-.64.35-.67.33-.02.41.34.52.58,2.16,4.72,2.51,9.5.41,14.34-.3.7-.69,1.37-1.03,2.05-.8,1.64-1.88,2.8-3.68,2.3ZM30.78,33.75c-.7.02-1.33.73-1.3,1.49.02.8.5,1.21,1.25,1.24.88.04,1.4-.49,1.39-1.32,0-.84-.57-1.44-1.34-1.41Z"/>
          </g>
          <path id="Arm-Left" class="cls-8" d="M41.37,49.64c-3.06-.35-5.91-1.28-8.28-3.34-1.13-.98-1.03-1.45.34-2.05,1.03-.44,1.82-1.15,2.48-2.02.5-.66,1.07-.77,1.83-.5,1.54.56,3.05,1.19,4.51,1.91,1.23.61,1.53,1.37,1.25,2.74-.13.61-.33,1.22-.38,1.84-.08,1.14-.71,1.51-1.76,1.41Z"/>
        </g>
        <g id="Claw-Arm-Right">
          <path id="Claw-Right" class="cls-8" d="M73.94,22.2c0-2.2-.01-4.39,0-6.59,0-1.21.2-1.35,1.36-1.11,6.21,1.29,10.24,5.71,10.61,12.16.34,5.82-1.54,10.91-6.16,14.73-1.68,1.39-3.67,2.11-5.91,1.97-1.19-.07-2.25-.45-3.02-1.42-.33-.41-.43-.88-.24-1.38.22-.54.72-.46,1.17-.46,1.39,0,2.79-.04,4.18.04,3.15.17,7.08-3.02,7.59-6.85.1-.79.16-1.59.2-2.39.03-.66-.03-1.29.47-1.86.36-.42.19-.93-.21-1.31-.29-.27-.62-.33-.95-.08-.45.34-.52.8-.36,1.31,1.69,5.41-2.07,10.02-6.12,10.34-1.67.13-3.34.13-5-.11-.53-.08-.9-.36-1.18-.78-3.72-5.66-4.28-11.57-1.45-17.76.11-.24.18-.63.51-.58.39.05.33.47.39.76.44,2.29.69,4.67,1.69,6.77,1.06,2.24,2.69,4.15,5.12,5.06,2.25.85,3.91-.36,3.96-2.73.06-3.01.09-6.01-1.38-8.77-.21-.39-.04-.71.13-1.08.4-.84.15-1.65-.55-1.96-.74-.33-1.7-.03-1.98.64-.36.84-.02,1.76.88,2.02.63.18.91.58,1.15,1.1.67,1.48,1.08,3.01,1.06,4.64-.01,1.25.03,2.51,0,3.76-.04,1.47-1.2,2.39-2.56,1.88-2.57-.95-3.5-1.85-3.37-4.22.11-1.91.02-3.83.02-5.75h-.02ZM73.53,35.2c0-.86-.58-1.47-1.4-1.46-.76,0-1.43.72-1.41,1.49.02.69.73,1.35,1.45,1.34.81-.01,1.36-.57,1.37-1.37Z"/>
          <path id="Arm-Right" class="cls-8" d="M63.81,49.68c-.43.07-.81-.35-.96-1.06-.16-.75-.3-1.5-.49-2.24-.3-1.15.11-2.01,1.08-2.58,1.53-.9,3.19-1.54,4.86-2.14.6-.22,1.11-.03,1.47.48.77,1.08,1.75,1.88,2.99,2.35.74.29.71.78.31,1.32-.27.36-.59.7-.95.97-2.37,1.72-5.06,2.58-8.31,2.91Z"/>
        </g>
        <g id="Legs-Left">
          <path class="cls-1" d="M21.53,77.29c0,.94,0,1.88,0,2.82,0,.8.03,1.54.53,2.27.63.94.23,2.16-.72,2.72-.91.53-2.14.31-2.73-.5-.62-.85-.43-2.12.5-2.77.53-.37.68-.78.72-1.38.16-2.19.05-4.39.11-6.58.02-.82-.27-1.15-1.09-1.1-.69.04-1.39.03-2.09,0-.96-.03-1.77.03-2.44.97-.71,1-2.21.94-3.19.11-.85-.72-.99-1.97-.33-2.93.73-1.05,2.24-1.49,3.22-.68,1.67,1.38,3.53.56,5.31.73.42.04.56-.38.57-.75.02-1.64.02-3.27.03-4.91,0-.49-.28-.68-.73-.68-2.33,0-4.67.01-7,.01-.43,0-.68.29-.99.52-.94.7-2.2.54-2.89-.34-.64-.82-.5-2.04.3-2.73.81-.7,2.04-.63,2.78.26.4.48.83.55,1.37.54,2.4-.01,4.81,0,7.21-.01q1.53,0,1.54,1.58c0,1.78.03,3.55-.01,5.33-.02.8.26,1.13,1.07,1.14.59,0,1.18.03,1.77-.01,1.44-.11,1.45-.1,1.44-1.58,0-.99.11-1.93-.87-2.72-.84-.68-.6-1.91.24-2.67.9-.81,2.13-.82,2.92,0,.74.76.78,1.94.09,2.76-1.05,1.24-1.15,3.53-.18,4.83.31.42.44.85.44,1.36,0,1.67-.01,3.35,0,5.02,0,.65-.21,1.15-.76,1.5-.12.07-.22.18-.34.24-2.03,1.15-2.31,3.01-2.06,5.09.05.43.32.67.56.96.9,1.07.62,2.69-.53,3.21-.92.41-1.94.21-2.47-.49-.54-.7-.59-1.81.12-2.5.7-.68.78-1.41.74-2.26-.01-.21.03-.42,0-.63-.3-1.98.25-3.53,2.1-4.53.69-.37.96-1.04.92-1.86-.05-1.04-.02-2.09,0-3.14,0-.62-.27-.88-.89-.87-1.15.02-2.3.02-3.45,0-.63-.01-.87.26-.86.88.02,1.25,0,2.51,0,3.76Z"/>
          <path class="cls-11" d="M14.67,47.08c-.73,0-1.46.02-2.19,0-.7-.03-1.25.14-1.79.64-.84.78-2.04.68-2.81-.13-.62-.65-.63-1.92-.02-2.59.71-.78,2.01-.93,2.83-.25.44.37.91.44,1.44.47,3.34.15,6.69.17,10.03.12.9-.01,1.4.28,1.74,1.12.56,1.39,1.24,2.72,1.86,4.09.21.47.52.78,1.01.98,3.13,1.27,6.25,2.56,9.37,3.85,1.37.57,2.84.66,4.28.86.71.1,1.47.19,1.62,1.16.27,1.8-.02,2.1-1.78,1.67-2.89-.72-5.51-2.15-8.25-3.26-1.32-.53-2.67-1.04-3.92-1.72-2.33-1.27-4.83-1.14-7.34-1.11-1.34.02-2.66-.14-3.89.75-.86.62-2.11.12-2.62-.77-.52-.9-.28-1.89.63-2.57.89-.67,2-.6,2.69.31.45.59.94.72,1.6.71,1.36-.03,2.72-.03,4.08,0,.8.02.92-.29.54-.93-.02-.03-.04-.06-.05-.09-.71-2.48-2.22-3.58-4.9-3.18-1.35.2-2.77-.09-4.16-.16,0,0,0,.02,0,.03Z"/>
          <path class="cls-12" d="M40.17,63.17c-1.32-.21-3.02.21-4.5-.73-.03-.02-.07-.03-.1-.02-2.8.34-4.77-1.5-6.92-2.75-1.29-.75-2.55-1.11-4.03-1.08-3.38.07-6.76.02-10.13,0-.57,0-1.07.09-1.56.45-.97.7-2.26.52-2.9-.33-.55-.72-.4-2.04.29-2.68.87-.8,1.98-.77,2.86.18.41.45.89.54,1.4.55,4,.08,8.01.12,12.01-.03.62-.02,1.16.02,1.69.35,1.1.66,2.26,1.24,3.34,1.95,1.28.85,2.66,1.14,4.16,1.14,1.85,0,3.69.02,5.54,0,.72-.01,1.05.22,1.17.97.35,2.05.38,2.04-1.72,2.03-.1,0-.21,0-.59,0Z"/>
          <path class="cls-10" d="M31.52,94.54c-1.42,0-2.62-.92-3-2.31-.37-1.37.12-2.75,1.42-3.37.95-.45,1.17-1.08,1.16-2.06-.04-5.89-.02-11.78-.03-17.67,0-.93.19-1.74,1.06-2.23.37-.2.8-.45,1.15-.11.33.32.3.86.05,1.17-.62.8-.51,1.7-.51,2.6,0,5.58,0,11.15-.02,16.73,0,.75.16,1.3.79,1.8,1.07.86,1.32,2.1.83,3.4-.45,1.19-1.64,2.03-2.91,2.03Z"/>
          <path class="cls-16" d="M42.22,53.96c-.04,1.55-.29,1.73-1.56,1.13-3.86-1.83-7.63-3.88-11.64-5.41-1.01-.39-1.48-1.29-1.28-2.14.22-.93.86-1.41,1.79-1.49.92-.08,1.58.46,1.87,1.6.16.62.5.92,1.06,1.15,2.92,1.21,5.83,2.47,8.76,3.67.79.33,1.24.76,1.01,1.49Z"/>
          <path class="cls-17" d="M36.24,75.25c0-1.88,0-3.76,0-5.64,0-.56.03-1.06.79-1.07.76,0,.81.49.81,1.06,0,3.66.01,7.31,0,10.97,0,.69.13,1.25.64,1.78.83.86.79,2.03.03,2.82-.69.72-1.76.8-2.56.19-.87-.67-1.14-2-.39-2.89.61-.72.7-1.45.68-2.3-.03-1.64,0-3.27,0-4.91h0Z"/>
          <path class="cls-15" d="M19.38,39.22c0,1.65-1.5,3.07-3.2,3.05-1.67-.02-2.99-1.37-3.02-3.1-.03-1.61,1.52-3.16,3.14-3.14,1.66.02,3.09,1.5,3.08,3.19Z"/>
          <path class="cls-13" d="M45.29,67.41c-3.31,0-6.4,0-9.49,0-.81,0-1.23-.46-1.34-1.19-.12-.76.16-1.39.93-1.66.32-.11.68-.15,1.02-.15,1.98-.02,3.97,0,5.95-.03.67-.01,1.1.19,1.37.85.32.77.88,1.4,1.55,2.18Z"/>
        </g>
        <g id="Legs-Right">
          <path class="cls-14" d="M84.37,56.84c1.81,0,3.62-.03,5.44.01.82.02,1.11-.28,1.09-1.1-.06-3.35.39-2.75-2.73-2.79-2.16-.03-4.32.01-6.48,0-.93,0-1.78.2-2.63.57-3.87,1.68-7.75,3.32-11.63,4.96-.74.31-1.51.56-2.31.63-.46.04-1,.3-1.23-.38-.27-.79.02-1.9.6-2.1.62-.21,1.27-.39,1.92-.5,3.8-.63,7.15-2.5,10.72-3.77,1.87-.67,2.92-1.81,3.67-3.6,1.45-3.46,1.54-3.43,5.28-3.42,1.18,0,2.37-.06,3.55.02,1.04.07,1.4-.36,1.28-1.34-.02-.17-.02-.35,0-.52.1-.95-.07-1.4-1.27-1.32-1.91.12-3.24-1.39-3.16-3.25.07-1.67,1.46-2.98,3.08-2.9,1.81.09,3.24,1.71,2.99,3.58-.2,1.46-.12,2.92-.13,4.38,0,.45-.23,1.1.38,1.28.61.18,1.26.21,1.84-.34,1.04-.97,2.46-.82,3.17.24.56.83.49,1.83-.18,2.49-.74.73-1.85.79-2.76.08-.47-.37-.89-.75-1.56-.68-.54.05-.87.27-.87.82-.01,2.33,0,4.67-.02,7,0,.67.44.53.86.58,1.22.12,2.12,1.13,2.04,2.23-.07.95-.99,1.72-2.04,1.72-.36,0-.73-.05-.99-.28-.67-.57-1.46-.57-2.27-.57-3.28.02-6.55.02-9.83,0-.76,0-1.43.17-2.07.57-1.13.69-2.31,1.3-3.43,2-1.27.79-2.73.91-4.1,1.35-2.11.67-4.18.6-6.29.64-1.24.02-1.28-.05-.97-1.24.5-1.93.17-1.71,2.15-1.74.56,0,1.12-.06,1.67,0,3.54.44,6.67-.63,9.57-2.54.94-.62,1.93-.87,3.06-.83,1.53.06,3.07.01,4.6.01h0ZM86.07,51.4h0c.63,0,1.25.02,1.88,0,3.48-.09,2.91.72,2.96-3.18,0-.67-.29-.94-.95-.93-1.04.02-2.09,0-3.13,0q-3.48,0-5.01,3.13c-.03.06-.06.13-.09.19-.34.56-.21.81.47.8,1.29-.02,2.58,0,3.86,0Z"/>
          <path class="cls-5" d="M89.12,62.91c.98,0,1.95-.02,2.93,0,.91.02,1.72-.02,2.45-.78.76-.79,2.02-.59,2.72.19.63.71.64,1.88.03,2.6-.68.8-1.87.99-2.72.3-.57-.47-1.14-.59-1.82-.58-1.99.02-3.97.03-5.96,0-.76-.01-1.07.26-1.05,1.03.04,1.46.03,2.93,0,4.39-.01.7.22,1.02.96,1,1.18-.04,2.37-.03,3.55,0,.49,0,.83-.21,1.2-.52,1.07-.91,2.54-.86,3.41.05.84.87.79,2.38-.1,3.21-.96.88-2.68.88-3.36-.15-.49-.73-1.05-.9-1.83-.87-.94.04-1.88.03-2.82,0-.69-.02-1.02.23-1.01.97.03,2.3.02,4.6,0,6.9,0,.51.19.82.59,1.12,1.02.79,1.2,2.04.48,2.93-.63.78-1.77.91-2.64.3-.96-.68-1.14-1.88-.37-2.94.29-.4.37-.8.37-1.26,0-2.3-.03-4.6,0-6.9.01-.78-.21-1.17-1.06-1.13-1.08.05-2.16.02-3.24.01-.67,0-1.05.25-1.03.98.03,1.04.03,2.09,0,3.13-.02.6.33.96.72,1.32,2.89,2.61,2.31,1.44,2.38,5.5.01.81.04,1.51.71,2.17.81.79.71,2.03-.03,2.73-.74.7-2.04.72-2.77.04-.73-.68-.8-1.9-.16-2.77,1.22-1.67,1.09-4.2-.53-5.43-1.57-1.19-2.16-2.58-1.9-4.48.11-.82.04-1.67,0-2.51-.03-.83.13-1.54.67-2.23.77-.98.45-3.54-.45-4.37-.78-.73-.87-1.9-.21-2.73.66-.84,1.94-1.01,2.82-.37.86.62,1.24,2.01.51,2.78-1.12,1.18-.65,2.54-.73,3.84-.03.49.28.67.73.67.8,0,1.61-.04,2.4.01.85.06,1.18-.24,1.16-1.12-.05-1.95.02-3.9-.03-5.85-.02-.92.34-1.24,1.23-1.2,1.25.05,2.51.01,3.76.01h0Z"/>
          <path class="cls-2" d="M74.6,78c0,3.06.01,6.13-.01,9.19,0,.74.2,1.19.91,1.55,1.4.7,2.03,2.03,1.75,3.34-.29,1.33-1.3,2.26-2.66,2.44-1.21.16-2.57-.57-3.11-1.69-.66-1.36-.43-2.75.73-3.79.5-.44.67-.9.66-1.54-.02-6.02-.03-12.04-.02-18.06,0-.58-.14-1.08-.45-1.56-.24-.37-.26-.81.07-1.16.37-.39.77-.16,1.14.04.77.42.97,1.12.97,1.94,0,3.1,0,6.19,0,9.29h.02Z"/>
          <path class="cls-3" d="M63.66,53.77c-.16-.68.27-1.04.92-1.31,2.89-1.19,5.77-2.4,8.67-3.59.61-.25,1.04-.5,1.14-1.28.12-.97.95-1.63,1.8-1.57.88.06,1.54.51,1.73,1.4.19.93-.06,1.76-.97,2.2-1,.48-2.04.87-3.08,1.29-2.91,1.17-5.67,2.63-8.48,4.01-1.54.76-1.7.67-1.73-1.15Z"/>
          <path class="cls-4" d="M69.57,75.39c0,1.43,0,2.85,0,4.28,0,1.1-.05,2.17.64,3.19.61.91.23,2.07-.57,2.58-.82.53-2.08.35-2.66-.38-.6-.75-.53-1.99.28-2.74.5-.46.61-.94.61-1.56-.01-3.68,0-7.37,0-11.05,0-.52-.07-1.08.71-1.16.85-.08.99.45.99,1.11,0,1.91,0,3.82,0,5.74h.01Z"/>
          <path class="cls-7" d="M65.93,67.42c-1.41.05-2.94-.08-4.46.11-.22.03-.53.11-.65-.18-.1-.23.16-.35.28-.5.29-.39.72-.73.85-1.17.36-1.2,1.18-1.33,2.25-1.29,1.63.07,3.26,0,4.9.02.38,0,.78.02,1.13.15.75.27,1.08.87.98,1.64-.1.79-.54,1.24-1.4,1.22-1.25-.02-2.5,0-3.87,0Z"/>
        </g>
        <g id="Tail">
          <path class="cls-8" d="M49.35,75.52c-.1-.59-.56-.6-.87-.77-.77-.41-1.58-.75-2.22-1.36-.8-.76-1.03-1.85-.61-2.77.45-1,1.41-1.56,2.56-1.39,3.32.5,2.76-.19,2.82,3.08.02,1.01.06,1.98-.87,2.74-.63.51-.27,1.18.16,1.66.51.56,1.2.6,1.79.16.57-.43.95-1.2.41-1.72-1.42-1.37-.82-3.05-.93-4.63-.03-.47.07-.89.71-.93,1.7-.11,3.4-.3,5.1-.37,1.54-.06,2.46.58,2.83,1.81.34,1.15-.17,2.26-1.49,3.02-2.12,1.21-4.3,2.3-6.29,3.73-.25.18-.55.28-.74.67.77.18,1.29-.25,1.8-.57,1.2-.77,2.36-1.62,3.69-2.16.69-.28,1.47-.72,2.13,0,.69.75.49,1.62.1,2.44-.36.76-.98,1.32-1.78,1.51-3.12.77-6.26.87-9.37-.04-1.15-.34-1.89-1.15-2.18-2.33-.29-1.2.27-1.89,1.5-1.86.57.01,1.14.06,1.75.1ZM56.81,72.36c0-.87-.62-1.59-1.42-1.62-.79-.02-1.45.69-1.45,1.57,0,.83.61,1.45,1.43,1.46.87.02,1.43-.54,1.44-1.42Z"/>
          <path class="cls-8" d="M52.88,98.51c-.99-.12-2.13-.19-3.26-.4-1.23-.22-1.64-1.09-1.15-2.23.14-.32.35-.62.43-.95.49-2.15,2.07-2.43,3.94-2.56,2.07-.14,3.27.6,4.04,2.56.93,2.36.66,3.07-1.86,3.39-.65.08-1.32.12-2.13.19Z"/>
          <path class="cls-8" d="M61.91,97.52c-1.21,0-2.04-.36-2.73-1.07-1.1-1.14-1.85-2.5-2.46-3.95-.21-.51-.11-.87.33-1.16.52-.34,1.11-.62,1.55-1.05.91-.91,1.66-.69,2.5.08,1.18,1.07,2.44,2.06,3.62,3.13,1.03.94.96,2.13-.13,3.02-.84.69-1.83.95-2.68,1Z"/>
          <path class="cls-8" d="M43.89,97.51c-1.21-.15-2.46-.51-3.23-1.76-.47-.77-.47-1.51.2-2.18,1.35-1.36,2.85-2.55,4.4-3.68.4-.29.75-.27,1.14,0,.76.54,1.54,1.07,2.32,1.59.29.19.48.42.35.78-.66,1.86-1.56,3.58-3.25,4.73-.52.36-1.13.52-1.93.51Z"/>
          <path class="cls-8" d="M66.46,93.38c-.62.02-.9-.18-1.17-.41-1.87-1.56-3.56-3.34-5.71-4.55-.43-.24-.61-.68-.46-1.17.16-.5.62-.56,1.04-.47,2.63.58,5.18,1.39,7.42,2.95.63.44,1,1.07.65,1.91-.38.93-.99,1.58-1.77,1.74Z"/>
          <path class="cls-8" d="M45.51,86.81c.55.03.94.03,1.06.44.14.46.11.96-.36,1.2-2.21,1.16-4,2.88-5.88,4.47-.76.65-1.41.34-2.03-.21-.84-.76-1.13-1.7-.71-2.38.11-.17.24-.35.4-.47,2.31-1.66,5.03-2.3,7.51-3.05Z"/>
          <path class="cls-8" d="M56.73,85.67c.61-.1,1.05.12,1.2.73.23.92.82,1.94.16,2.79-.9,1.17-1.94,2.3-3.58,2.47-.73.08-1.21-.26-1.34-1-.24-1.34-.12-2.7-.09-4.05.01-.46.3-.68.75-.68.97,0,1.94-.07,2.89-.26Z"/>
          <path class="cls-8" d="M52.5,88.73c0,.55,0,1.11,0,1.66-.02,1.02-.58,1.53-1.53,1.26-1.37-.4-2.44-1.29-3.42-2.29-.36-.37-.17-.85-.07-1.29.55-2.44.54-2.37,2.98-2.21,2.4.16,1.98.22,2.02,2.24,0,.21,0,.42,0,.62h.01Z"/>
          <path class="cls-8" d="M53.06,82.99c0-.31,0-.63,0-.94,0-.64.3-.97.96-.95,1.12.04,2.21-.18,3.31-.35,1.4-.21,2.14.76,1.59,2.05-.36.84-.97,1.46-1.84,1.74-.59.19-1.21.34-1.83.41-2.13.23-2.19.15-2.19-1.96Z"/>
          <path class="cls-8" d="M52.49,83.05c0,2.05-.23,2.24-2.3,1.86-1.26-.23-2.42-.66-3.12-1.83-.35-.59-.57-1.22-.12-1.85.43-.6,1.04-.56,1.69-.44.81.16,1.63.32,2.47.32,1.35,0,1.37.04,1.38,1.43,0,.17,0,.35,0,.52Z"/>
        </g>
        <path id="Body" class="cls-6" d="M49.69,23.04c-.18-.99-.25-2.01-.57-2.95-.58-1.65-.76-3.31-.54-5.04.08-.65,0-1.32.03-1.98.04-.84-.06-1.49-.9-2.02-.95-.59-.97-1.85-.25-2.66.74-.84,2.19-.94,3.03-.22.87.74,1.07,2.01.26,2.78-.71.67-.72,1.39-.79,2.24-.3,3.5.79,6.83,1.18,10.24.24,2.18.66,4.33,1.14,6.47.1.47.21.95.56,1.44.6-.88.77-1.86.94-2.81.68-3.73,1.38-7.47,1.9-11.22.23-1.68.07-3.41.09-5.11,0-.44-.3-.67-.58-.94-.94-.92-.97-2.21-.11-3.06.87-.86,2.25-.82,3.08.09.87.95.8,2.12-.27,3-.45.37-.67.77-.63,1.34.2,3.18-.08,6.32-.91,9.4-.07.26-.07.54,0,.87,1.06-1.63,2.23-3.16,3.49-4.61,2.97-3.44,6.5-6.08,10.85-7.55.3-.1.6-.19.91-.24.32-.06.54.1.64.4.09.28-.05.49-.26.62-.27.16-.55.3-.84.41-5.41,2.08-9.41,5.85-12.63,10.55-1.09,1.58-2.1,3.2-2.82,4.99-.14.36-.3.71-.18,1.11.55,1.87,1.08,3.74,2.03,5.47,1.41,2.55,2.1,5.37,2.88,8.16.71,2.52,1.08,5.11,1.59,7.67.05.27.2.58-.03.8-.28.28-.59.03-.86-.09-.79-.36-1.57-.75-2.36-1.13-.09-.05-.26-.08-.27-.14-.21-1.14-1.15-1.89-1.58-2.84-.42-.92-.1-2.18-.03-3.3.01-.23.33-.43.48-.66.34-.5.32-.99-.15-1.4-.38-.33-.83-.39-1.24-.06-.47.38-.58.87-.22,1.39.96,1.37.39,2.9.43,4.35,0,.23-.38.47-.58.7-.41.47-.49,1.01-.26,1.56.24.56.74.98,1.32.83,1.02-.25,1.73.3,2.51.71,3.4,1.8,3.39,1.8,3.4,5.66,0,2.09-.02,4.17-.6,6.21-1.16,4.13-2.81,5.51-7.09,5.74-.76.04-1.53.03-2.3.02-.29,0-.68.12-.82-.27-.12-.34.13-.6.35-.82.54-.54,1.12-1.05,1.67-1.58,1.23-1.18,2.48-2.35,3.68-3.56.61-.62,1.21-1.08,2.17-1,.76.07,1.12-.44,1.12-1.2,0-.84-.56-1.52-1.35-1.58-.78-.06-1.48.36-1.37,1.07.23,1.49-.78,2.08-1.63,2.87-1.56,1.45-3.09,2.91-4.63,4.38-.23.21-.56.45-.6.7-.15,1.11-.86.98-1.62.85-3.05-.53-4.97-2.64-5.7-6.27-.52-2.58-.5-5.19-.58-7.8-.03-.96.36-1.61,1.19-2.13,1.51-.94,2.81-2.17,4.19-3.28.44-.36.65-.78.63-1.35-.03-.94-.01-1.88-.02-2.82,0-.7-.03-1.35.53-1.94.45-.48.28-1.04-.21-1.47-.4-.36-.82-.35-1.23-.03-.52.42-.56.94-.21,1.48,1.05,1.61.48,3.36.41,5.05-.01.31-.3.55-.55.73-1.12.82-2.26,1.64-3.39,2.44-.19.14-.41.35-.66.22-.25-.14-.15-.44-.11-.67.96-4.99,1.51-10.09,3.73-14.74,1.02-2.14,2.06-4.25,2.62-6.57.12-.52.19-1.02-.05-1.53-2.8-5.73-6.73-10.47-12.13-13.92-1.12-.72-2.35-1.22-3.58-1.69-.44-.17-1.08-.24-.83-.94.23-.65.81-.39,1.26-.27,2.08.55,3.96,1.53,5.69,2.79,3.32,2.43,6.15,5.34,8.37,8.82.18.29.38.57.57.86.08-.02.16-.04.23-.06ZM52.29,46.39c0,1.55-.14,2.97.03,4.34.24,1.85-.59,3.06-1.92,4.1-.14.11-.28.21-.4.33-.64.66-1.21,1.19-2.34.87-.8-.23-1.28.56-1.41,1.35-.12.73.56,1.57,1.31,1.63.81.06,1.38-.31,1.44-1.16.05-.61.33-1.03.75-1.43.85-.82,1.67-1.68,2.54-2.48.5-.46.7-.97.69-1.65-.02-3.76,0-7.52,0-11.29,0-.58.06-1.09.52-1.52.46-.43.44-.94,0-1.38-.41-.41-.91-.55-1.41-.19-.5.36-.63.97-.27,1.38.7.78.59,1.67.59,2.56,0,1.57.04,3.13-.12,4.54ZM57.16,53.58c-.89,0-1.51.77-1.25,1.69.19.68.03,1.13-.43,1.58-1.66,1.59-3.3,3.19-4.95,4.8-.4.39-.82.57-1.41.37-.47-.16-.97-.09-1.37.28-.52.49-.62,1.07-.38,1.72.22.59.7.87,1.31.86.75-.01,1.32-.42,1.44-1.13.16-.99.81-1.58,1.45-2.22,1.45-1.45,3.05-2.76,4.39-4.32.39-.46.83-.77,1.48-.86.84-.11,1.11-.76.99-1.56-.11-.76-.59-1.15-1.28-1.21ZM51.12,35.12c-.06-.57-.05-1.36-.83-1.31-.88.06-1.06.91-1.12,1.64-.06.61.24,1.22.88,1.2.87-.03,1.04-.78,1.07-1.53ZM56.58,35.19c-.12-.57-.19-1.42-1.08-1.38-.81.04-.75.86-.76,1.48,0,.63.12,1.23.92,1.24.81.01.9-.6.93-1.35Z"/>
      </g>
    </g>
  </g>
</svg>